<!-- Created with Inkscape (http://www.inkscape.org/) -->
<svg version="1.1" viewBox="0 0 227.69 214.6" xml:space="preserve"
        xmlns="http://www.w3.org/2000/svg">
        <g transform="translate(2.9289 -47.72)">
            <g stroke-width=".26458">
                <path id="light-green"
                    d="m94.598 47.72c-1.7395-5e-4 -3.4928 0.0494-5.4503 0.15038-3.0177 0.15562-7.2871 0.51435-9.4873 0.79685-2.2002 0.28251-5.307 0.76348-6.9045 1.0692-1.5975 0.3057-4.3335 0.91142-6.0797 1.3457s-4.5442 1.2108-6.2177 1.726c-1.6735 0.51513-5.0073 1.7107-7.4083 2.6572-2.4011 0.94645-6.092 2.5803-8.2021 3.6303-2.11 1.0499-5.0668 2.6755-6.5707 3.6127-1.5038 0.93723-4.0593 2.696-5.6787 3.9083-1.6194 1.2123-4.1241 3.2318-5.5661 4.4876-1.442 1.2558-4.6365 4.3832-7.0988 6.9494-2.4623 2.5663-5.6118 6.0832-6.9985 7.8155-1.3867 1.7323-3.5074 4.638-4.7129 6.457-1.2055 1.819-2.8666 4.5204-3.6912 6.0032-0.82466 1.4829-2.0857 4.0123-2.8024 5.6208s-1.7308 4.2476-2.2536 5.8648c-0.52277 1.6171-1.1238 4.0883-1.3353 5.4916-0.21154 1.4033-0.38517 3.7271-0.38602 5.164-1e-3 1.7325 0.21752 3.6942 0.64854 5.8229 0.35748 1.7655 0.96759 4.1616 1.356 5.3247 0.3884 1.1632 1.2201 3.1511 1.848 4.4178s1.5511 2.9336 2.0521 3.7042c0.50093 0.7706 1.431 2.0714 2.0665 2.8903 0.63555 0.81881 2.5358 3.081 4.223 5.0271s4.3661 4.7884 5.9531 6.3164 4.0762 3.776 5.5314 4.9956 2.6813 2.3088 2.7249 2.4205c0.0436 0.11174-0.49221 0.41296-1.1906 0.66973s-1.9841 0.75657-2.8572 1.1105c-0.87312 0.35395-2.2423 1.0095-3.0427 1.4568-0.80036 0.44728-2.5253 1.5371-3.8328 2.4221-1.3076 0.88492-3.6419 2.8289-5.1878 4.3196-1.5458 1.4907-3.5542 3.7529-4.4628 5.0271-0.90853 1.2741-2.1324 3.2692-2.7197 4.4333s-1.3567 2.8844-1.71 3.8225-0.86885 2.6646-1.1457 3.8365-0.63084 3.4937-0.78652 5.1599c-0.20105 2.1518-0.20061 3.9112 5.2e-4 6.0725 0.15575 1.6736 0.46199 3.9105 0.68109 4.9713s0.69766 2.8529 1.0635 3.9822c0.3658 1.1292 1.321 3.4223 2.1224 5.0958 0.80137 1.6735 2.2176 4.1744 3.1471 5.5578 0.92954 1.3834 2.6803 3.6412 3.8907 5.0173s3.4111 3.5836 4.8901 4.9056c1.4791 1.322 3.9003 3.27 5.38 4.3289 1.4798 1.0589 4.3235 2.8989 6.3195 4.0886 1.996 1.1897 4.8752 2.7585 6.3986 3.4861 2.6138 1.2484 2.8427 1.4235 4.0633 3.1135 0.71139 0.98494 2.3747 2.8351 3.6959 4.1114s3.6015 3.1178 5.0674 4.0923c1.4659 0.9745 4.0285 2.4202 5.6947 3.2122 1.6662 0.792 4.6338 1.9738 6.595 2.6262 1.9611 0.65244 4.9932 1.5043 6.7376 1.8929 1.7444 0.38863 4.7512 0.93794 6.6818 1.2206s5.1466 0.61983 7.1468 0.74982c2.0003 0.12999 5.542 0.1816 7.8703 0.11421v-5.2e-4c2.3283-0.0674 5.7101-0.29916 7.5153-0.51521 1.8052-0.21606 4.39-0.63324 5.7438-0.92656 1.3539-0.29333 3.2704-0.80843 4.2587-1.1446 0.98827-0.3362 2.3921-0.91204 3.1197-1.28l1.3229-0.66921 9.6573-0.13695c7.8116-0.11094 10.441-0.2448 13.758-0.69918 2.2555-0.30896 5.5893-0.85955 7.4083-1.2237 1.819-0.36414 5.0082-1.1406 7.0874-1.7255 2.0792-0.58492 5.2343-1.604 7.0115-2.2645 1.7771-0.66048 5.2554-2.181 7.7292-3.3791 2.4738-1.1982 6.0458-3.1088 7.9375-4.2457 1.8918-1.137 4.3921-2.7288 5.5562-3.5372 1.1642-0.80845 3.3668-2.422 4.8948-3.5853 1.9178-1.4602 3.6384-2.4977 5.5562-3.3507 1.5279-0.67958 3.8931-1.797 5.256-2.4831 1.3628-0.68609 4.048-2.1822 5.9671-3.3249 1.9191-1.1426 4.9118-3.1137 6.6502-4.3801 1.7385-1.2664 4.1722-3.1512 5.4079-4.1884 1.2357-1.0372 3.4448-3.0394 4.9093-4.4493 1.4645-1.41 3.7871-3.8892 5.1614-5.5092 1.3743-1.62 3.1955-3.9191 4.0468-5.1092 0.85128-1.1901 2.1312-3.1114 2.8443-4.2695s1.2966-2.1826 1.2966-2.2769c0-0.0942-0.92274-7e-3 -2.0505 0.19482-1.1278 0.20145-4.789 0.77355-8.1359 1.2712-3.347 0.4977-8.6453 1.2061-11.774 1.5741-3.1286 0.36793-8.427 0.90313-11.774 1.1896-3.3469 0.28647-8.4667 0.64858-11.377 0.80461-2.9104 0.15603-5.993 0.32027-6.8502 0.36483l-1.5591 0.0811 1.0299-0.80253c0.56624-0.44139 2.261-1.9981 3.7662-3.4592 1.5052-1.4612 3.4611-3.5497 4.3465-4.6411 0.88542-1.0914 2.4137-3.2155 3.3962-4.7201 0.9825-1.5046 2.4956-4.1835 3.3626-5.9531 0.867-1.7696 2.0034-4.3638 2.5249-5.765 0.52148-1.4012 1.3031-3.7825 1.7374-5.2917 0.43428-1.5092 1.0884-4.2323 1.4537-6.0513 0.36523-1.819 0.85369-4.7956 1.0852-6.6146 0.23146-1.819 0.48939-5.6886 0.57309-8.599 0.0896-3.1182 0.0281-6.7619-0.14935-8.8708-0.16566-1.9684-0.47691-4.5796-0.69195-5.8028-0.21506-1.2231-0.33936-2.2749-0.27646-2.3378s1.6178 0.68078 3.4556 1.6531c1.8378 0.97233 4.4338 2.4298 5.7686 3.2386 1.3349 0.80871 3.6179 2.2822 5.0731 3.2742 1.4552 0.99201 3.4027 2.4156 4.3279 3.1636l1.6821 1.3601-0.17983-1.6759c-0.0991-0.92156-0.35979-2.866-0.57878-4.3212-0.21898-1.4552-0.74944-4.1341-1.1787-5.9531-0.42931-1.819-1.1988-4.6492-1.71-6.2895-0.51119-1.6403-1.581-4.6066-2.3776-6.5918-0.79662-1.9853-2.4341-5.5249-3.6385-7.8657-1.2045-2.3408-3.0118-5.5658-4.0163-7.1665s-2.6488-4.0631-3.654-5.472-2.693-3.6459-3.7512-4.9713c-1.0582-1.3254-3.3779-4.0025-5.1547-5.949-1.7768-1.9465-4.7979-4.9658-6.7138-6.7097-1.9158-1.7438-4.3765-3.9165-5.4679-4.8281-1.0914-0.91162-3.6513-2.909-5.6886-4.4385-2.0372-1.5294-5.371-3.8749-7.4083-5.2126-2.0373-1.3377-5.457-3.4572-7.5995-4.7098-2.1425-1.2526-5.8335-3.2858-8.2021-4.5176-2.3686-1.2318-5.7628-2.8959-7.5422-3.6985-1.7795-0.80262-4.9346-2.0452-7.0115-2.7611-2.0768-0.7159-5.4429-1.7265-7.4802-2.2458-2.0372-0.51938-5.252-1.2408-7.1438-1.603-1.8917-0.36222-5.3469-0.90033-7.6781-1.1958-2.3312-0.29547-6.6373-0.66623-9.5689-0.82372-1.9016-0.10197-3.6271-0.15298-5.3666-0.15348z"
                />
                <path id="light-purple"
                    d="m60.069 73.276c-0.8889 0-2.2982 0.17774-3.1316 0.39481s-2.1385 0.70622-2.9001 1.0873c-0.76154 0.38106-2.0165 1.1648-2.789 1.742-0.77248 0.57717-1.9318 1.7663-2.5766 2.6422-0.67756 0.92041-1.3974 2.3196-1.7048 3.315-0.2926 0.94732-0.53175 2.3394-0.53175 3.0939 0 0.75446 0.16988 2.0218 0.37776 2.8164 0.20789 0.79456 0.45543 1.683 0.54983 1.974 0.1087 0.33519-0.18768 0.14121-0.80873-0.52917-0.53924-0.58208-1.3802-1.8918-1.8686-2.9104-0.48841-1.0186-1.0098-2.4979-1.1586-3.2871-0.14876-0.78926-0.34246-1.5036-0.43046-1.5875s-0.10609 1.0382-0.0398 2.4934c0.0853 1.8742 0.29258 3.0892 0.71003 4.1662 0.34741 0.89633 0.9519 3.1613 1.73 4.0127 0.72596 0.79431 2.1238 2.4451 2.637 2.7623 0.51326 0.31721 2.1696 1.15 2.9937 1.4136 0.83797 0.26799 2.5619 0.76668 3.619 0.77468 1.1692 9e-3 3.0431-0.66971 4.0831-0.99106 0.92483-0.28576 3.2906-0.99914 4.1637-1.5229 0.87313-0.52372 2.0931-2.3367 2.6489-2.8733 0.55579-0.53659 1.3662-2.3231 1.9256-3.1575 0.55935-0.83438 1.7012-1.9904 2.0378-2.975 0.47127-1.3785-0.59385-2.9-0.60865-4.7337-0.0147-1.8208-0.62309-3.0105-1.0911-4.2244-0.33662-0.87313-1.8811-1.9116-2.3385-2.3704-0.4924-0.49394-1.6164-0.85315-2.4591-1.1034-0.78274-0.23245-2.1502-0.42272-3.0391-0.42272zm37.312 15.349c-1.9703 0-3.9705-0.29844-5.4298 0.0747-1.1511 0.29438-2.7005 0.96838-3.6309 1.4037-0.93038 0.43536-2.6832 0.75372-3.582 1.3952-0.89888 0.64142-3.8565 2.3171-4.667 3.1925-0.81051 0.87545-2.0133 3.4369-2.5481 4.3173-0.53482 0.8804-1.865 2.2364-2.2061 3.0758-0.34111 0.83947-0.86094 3.3126-1.0924 4.4332-0.23147 1.1206-0.419 3.0246-0.416 4.2313 3e-3 1.2067 1.2459 3.9052 1.4508 4.8719 0.20489 0.96668 0.84755 2.5229 1.2406 3.5207 0.39307 0.99785 0.7825 3.8404 1.5528 5.0046 0.77027 1.1642 4.1714 2.2476 4.7287 2.7836s1.8564 1.5378 2.5113 2.0494c0.65484 0.51157 2.2142 0.0623 2.2629 0.0693s0.10577-1.8642-0.50487-2.5555c-0.61064-0.69122-2.2735-1.5855-2.6953-2.3131-0.42176-0.7276-0.83568-2.0712-1.2015-3.2172-0.36582-1.1461-0.65881-2.2898-0.75161-3.3875-0.15995-1.8922-0.0274-1.0397 0.45196-0.84638 0.27809 0.11214 0.59012 0.19677 1.5058 0.54683 0.91569 0.35007 2.5056 0.55894 3.8454 0.79253 1.6916 0.29504 3.7473 1.0873 5.7682 0.99593 1.6822-0.0761 3.6422-0.94824 4.9421-1.279 1.2369-0.3147 3.6969-0.93544 5.0138-1.5826 1.3168-0.64714 3.3023-1.92 4.2714-2.7193 0.96904-0.7993 2.4087-2.1056 2.9808-2.8714 0.57214-0.7658 1.5311-2.4501 1.9122-3.2116 0.38106-0.76154 1.3814-2.424 1.5985-3.2574 0.21852-0.83896-0.39759-2.9927-0.39759-4.4132l-0.15336-2.6675-2.0484-2.4957c-1.1258-1.3717-2.9535-2.3544-4.6062-3.1679-1.3226-0.65097-3.423-2.0083-4.5741-2.2979-1.4395-0.36217-3.5884-0.47545-5.532-0.47545zm-64.418 22.035c-0.71645-0.0175-1.6168 0.0418-2.2712 0.16071-0.87256 0.15861-2.4794 0.72591-3.5708 1.2609-1.319 0.6466-2.523 1.512-3.5915 2.5812-1.0157 1.0165-1.9372 2.2805-2.5032 3.4339-0.77674 1.5828-0.90874 2.1449-0.99374 4.2333-0.0769 1.8912 0.0179 2.7748 0.44184 4.1165 0.29688 0.93964 0.5036 1.7448 0.4594 1.789s-0.64163-0.63431-1.3276-1.5074c-0.68594-0.8731-1.5943-2.3536-2.019-3.2902-0.42472-0.93669-0.85156-2.1977-0.94826-2.8024-0.11877-0.74323-0.24809-0.98519-0.39894-0.74724-0.1228 0.19372-0.22538 1.1309-0.22738 2.0826s0.0657 2.4497 0.28326 3.285c0.21758 0.83537 0.42248 2.8465 0.72052 3.4307 0.29803 0.5842 1.2066 1.9359 1.732 2.5174 0.52539 0.58155 1.6004 1.3284 2.0353 1.6381s2.0366 1.1813 2.8527 1.517c1.1255 0.46297 2.6184 0.50305 4.2531 0.50805 1.423 4e-3 2.0211-0.93088 3.1316-1.2774 0.92483-0.28864 2.5604-1.0088 3.2146-1.4458 0.65414-0.43699 2.0067-1.5299 2.6968-2.2075 0.69012-0.67765 0.9188-1.934 1.3699-2.637 0.4511-0.70298 1.7377-1.7773 2.0858-2.7634 0.48769-1.3819 0.34501-3.0165 0.34901-4.8814 4e-3 -1.6755-0.29931-3.2258-0.66033-4.3902-0.28673-0.92483-1.4122-1.9048-1.9432-2.4374-0.48811-0.48956-1.4637-1.116-2.0824-1.4126-0.61864-0.29663-1.7208-0.61687-2.4489-0.71107-0.18205-0.0236-0.40042-0.0376-0.63924-0.0434z"
                />
                <path id="green"
                    d="m104.59 73.013c-1.8479-1e-3 -4.7604 0.18129-6.472 0.40566-1.7116 0.22436-4.2476 0.65127-5.6358 0.94878-1.3882 0.29747-4.3098 1.1349-6.4926 1.8604-2.1828 0.72549-5.3975 2.0064-7.1438 2.8463-1.7462 0.83997-3.881 1.9472-4.7439 2.4603l-1.5689 0.93276 0.0641 1.5611c0.035 0.8585-0.12024 2.4513-0.34469 3.5398-0.22445 1.0885-0.9043 2.9912-1.511 4.2282-0.88532 1.8049-1.5525 2.6954-3.3786 4.5108-1.5894 1.5801-2.8495 2.5598-4.1801 3.2489-1.0476 0.54259-2.823 1.221-3.945 1.5079-1.122 0.28696-2.8532 0.52193-3.8468 0.52193h-1.8061l-0.6413 1.0154c-0.35266 0.55865-1.3021 2.3341-2.11 3.945-1.2695 2.5314-1.4158 2.9729-1.0764 3.2546 0.21596 0.17923 0.98213 1.2072 1.7027 2.2846 0.72057 1.0774 1.5515 2.7401 1.8464 3.6949 0.3834 1.2413 0.53527 2.4635 0.53227 4.2881-2e-3 1.4035-0.17908 3.295-0.39326 4.2034-0.21419 0.90842-0.73542 2.4144-1.1581 3.3466l-0.76843 1.695 1.096 1.0439c0.60264 0.5741 1.9863 1.7978 3.0753 2.7197s3.6488 2.9258 5.6885 4.453c2.0397 1.5272 5.1971 3.753 7.0161 4.9465 1.819 1.1934 4.9146 3.0974 6.8792 4.2308 1.9645 1.1333 5.4769 2.9967 7.8052 4.1408 2.5601 1.258 3.8673 2.0182 3.3073 1.9239-0.50932-0.0857-3.5747-0.80448-6.812-1.5973-3.2373-0.79282-7.8401-2.0335-10.228-2.7574-2.3882-0.72396-5.9903-1.8975-8.0047-2.6076-2.0144-0.71012-5.5078-2.0389-7.7634-2.9528-2.2556-0.91393-6.0867-2.5896-8.5137-3.7238-2.427-1.1342-4.8678-2.3482-5.424-2.6975l-1.0113-0.6351-0.66145 0.63303c-0.3638 0.34805-1.4949 1.0438-2.5136 1.5462-1.0186 0.50233-2.6575 1.1093-3.6416 1.3488-1.7257 0.41991-1.7687 0.44957-1.2087 0.84181 0.31937 0.2237 2.9703 1.5303 5.8906 2.9037 2.9203 1.3734 7.8101 3.5377 10.866 4.8095 3.0559 1.2718 7.6994 3.1195 10.319 4.1057 2.6194 0.98619 8.0963 2.9796 12.171 4.4297 4.0745 1.4501 9.9682 3.526 13.097 4.6132 3.1287 1.0872 8.3079 2.7321 11.509 3.6556 3.2014 0.92347 7.7938 2.1623 10.205 2.7528 2.4112 0.59049 6.757 1.5468 9.6573 2.1249 2.9003 0.57812 7.2376 1.3514 9.6387 1.7188 2.4011 0.36732 5.9134 0.84411 7.8052 1.0594 1.8918 0.21525 5.166 0.51829 7.276 0.67386 2.1101 0.15556 4.6699 0.32581 5.6885 0.37775 1.0186 0.0519 4.5905 0.0488 7.9375-7e-3 3.347-0.0555 7.4546-0.22073 9.1281-0.36742 1.6734-0.14669 3.4594-0.3423 3.9688-0.4346 0.69556-0.12605-0.35807-0.35468-4.2333-0.91829-2.8376-0.41269-7.7192-1.1753-10.848-1.6945-3.1287-0.51918-9.4986-1.707-14.155-2.6401-4.6567-0.93314-11.562-2.4873-15.346-3.4535-3.7835-0.96626-7.1568-1.8206-7.4962-1.8981-0.4871-0.11126-0.58012-0.25891-0.44132-0.70125 0.0967-0.30817 0.35759-1.2746 0.57981-2.1477 0.33338-1.3099 0.35171-1.9333 0.10491-3.5641-0.19529-1.2905-0.66239-2.7266-1.3457-4.1382-0.75388-1.5575-1.6127-2.7641-3.0716-4.315-1.1139-1.184-2.9225-2.7422-4.0194-3.4623-1.0969-0.72011-2.8704-1.6739-3.9414-2.1198-1.0709-0.44582-2.9857-1.1078-4.255-1.4712-1.2693-0.36349-3.3794-1.189-4.6891-1.8345-1.3096-0.64551-3.3632-1.9513-4.5635-2.9011-1.2051-0.95363-2.9592-2.7042-3.9171-3.9093-0.95402-1.2003-2.2618-3.2539-2.9058-4.5635-0.64395-1.3097-1.421-3.3338-1.7265-4.4979-0.30553-1.1642-0.67882-2.4739-0.82992-2.9104-0.15109-0.43656-0.56127-1.7401-0.91158-2.897-0.35031-1.1569-0.7082-3.1214-0.7953-4.3656-0.0898-1.2817-0.0254-3.1154 0.14883-4.2302 0.16911-1.0823 0.60743-2.8682 0.9741-3.9688 0.36665-1.1005 1.1469-2.8141 1.7338-3.8075 0.58685-0.99351 1.8455-2.6318 2.7972-3.6406s2.5581-2.3846 3.5698-3.0572c1.0117-0.67258 2.6332-1.5556 3.6034-1.9622 0.9702-0.40653 2.7221-0.93217 3.8928-1.1684 1.7045-0.34394 3.365-0.41051 8.3344-0.33331 6.0612 0.0941 6.286 0.11717 9.6454 0.99787 3.2133 0.84241 3.718 0.90199 7.6729 0.90899 3.7784 6e-3 4.4284-0.0604 6.0513-0.62063 1.2434-0.42922 2.1426-0.95201 2.8443-1.6536 0.6585-0.65851 1.037-1.2864 1.0558-1.7534 0.0162-0.40018 4e-3 -1.0243-0.0274-1.387-0.0312-0.36269-0.29341-1.1239-0.58291-1.6914-0.28951-0.56748-1.0813-1.6287-1.7591-2.358-0.67772-0.72934-2.0654-1.942-3.084-2.6949-1.0186-0.75294-2.6209-1.8168-3.5605-2.3642-0.93958-0.54736-3.0232-1.592-4.6302-2.3213s-3.279-1.3803-3.7155-1.4469c-0.43656-0.0665-1.5081-0.23209-2.3812-0.36793-0.87312-0.13584-3.0996-0.24808-4.9475-0.24908z"
                />
                <path id="light-beige"
                    d="m58.884 172.06c-2.5172-4.9e-4 -4.4813-0.0561-5.8701 0.22804-1.1642 0.23821-2.9565 0.75686-3.9751 1.2382-1.0186 0.4813-2.3275 1.2018-2.8927 1.7574-0.56517 0.55551-1.5108 1.9844-1.8363 2.7224-0.32549 0.73807-0.75512 1.7615-1.4848 3.624l-1.7093 4.3628 2.0655 2.1835c0.97152 1.027 2.8709 2.7372 4.1806 3.8385s3.8695 2.9808 5.6886 4.177c1.819 1.1962 4.7956 2.9537 6.6146 3.9057 3.022 1.5817 3.5661 2.4234 7.7969 3.3917 2.5466 0.58283 6.0761 0.93117 7.7496 1.2898 1.6735 0.3586 3.7372 0.80282 3.9611 0.81549 0.22392 0.0127 1.0413-0.95969 1.5041-1.7237s0.77653-2.141 1.1497-3.0598c0.37317-0.91871 1.0512-2.6919 1.3666-3.956 0.46364-1.8582 0.57371-3.1601 0.57671-6.4758 2e-3 -2.3051-0.23271-4.8602-0.42071-5.7524-0.18396-0.87313-0.79281-2.7509-1.2283-4.1416-0.43548-1.3907-0.88367-3.0561-1.1522-3.4977-0.39963-0.65713-1.2928-0.85441-3.5365-1.6618-1.5078-0.54253-4.1703-1.384-5.9013-1.8076-1.731-0.4236-4.2821-0.94167-5.8253-1.1746-1.5855-0.23927-4.6536-0.28314-6.8214-0.28367z"
                />
                <path id="dark-beige"
                    d="m79.912 176.21c0 0.11788 1.1731 1.662 1.4823 2.4313 0.30923 0.76937 0.83869 2.3878 1.177 3.5973 0.33835 1.2096 0.75545 3.4066 0.92692 4.8816 0.18212 1.5668 0.23727 3.6698 0.13242 5.0586-0.0987 1.3075-0.30122 2.9808-0.45032 3.7182-0.14909 0.73741-0.5257 2.1714-0.83654 3.1864-0.31085 1.015-1.0771 2.8488-1.703 4.0755-0.62593 1.2267-1.7259 2.5292-1.2732 2.642 0.40478 0.1009 2.6288 0.49049 5.7575 1.0078 3.1287 0.51736 6.9603 0.95645 8.3428 1.1634 1.3824 0.20693 2.6669 0.19808 2.776 0.21491 0.10914 0.0168 0.51482 0.076 0.52652-0.0331 0.0117-0.10915 0.05602-1.3893 0.1382-2.6263 0.0822-1.2369 0.29909-4.3667 0.30109-6.986 2e-3 -2.6194 0.26874-5.2971 0.18024-5.9519-0.0885-0.65485-0.4918-1.3513-0.5428-1.5696s-0.15158-0.65322-0.31213-0.94426-0.45428-0.73166-0.45348-0.84705c7.1e-4 -0.11538-0.52377-0.43565-0.70202-0.86597-0.17824-0.43032-0.32036-0.86544-0.44822-0.86544-0.12787 0-0.16237-0.2026-0.16237-0.42089 0-0.21828-0.11406-0.3694-0.25958-0.3694-0.14552 0-0.27114-0.16323-0.27114-0.32737s-0.54824-1.3446-1.7046-2.4902c-1.1564-1.1456-2.1066-1.9805-2.2527-1.9805s-0.45061-0.27659-0.56698-0.45873c-0.11638-0.18214-0.51132-0.48604-0.90905-0.69098-0.39772-0.20494-0.99682-0.65547-1.2842-0.92324-0.28741-0.26776-0.44218-0.49972-0.59377-0.49972-0.15161 0-0.47975-0.0371-0.47975-0.19127 0-0.15411-0.19848-0.366-0.33157-0.28375-0.13309 0.0823-0.40993-0.15741-0.45873-0.26746s-1.3522-0.43265-2.5527-1.0289c-1.0505-0.52168-3.2596-2.5414-2.3904-1.3058 0.0168 0.0239-0.80178-0.0641-0.80178-0.0493z"
                />
                <path id="dark-purple"
                    d="m146.65 89.681c-0.2401-0.0284-0.39602 0.43723-0.61059 0.40461l-2.2595-0.34365c-0.64371-0.0978-1.5112 0.31802-2.1507 0.56225-0.6805 0.25988-1.3383 0.92598-1.6909 1.4014-0.3412 0.45995-0.97307 1.8016-1.1387 2.2963-0.16562 0.49466-0.33735 1.8165-0.33735 2.496s0.16368 2.1546 0.38569 2.9021c0.22201 0.7476 1.4382 2.2751 1.9074 2.8864s1.6827 0.80841 2.2106 1.2333c0.52788 0.42484 1.1857 1.0634 1.7493 1.2643 0.56353 0.20088 2.135 0.53313 2.6305 0.53913 0.83698 0.0108 1.4322-1.5209 1.0541-1.951-0.22388-0.25466-0.53022-0.95945-0.85756-1.61-0.34213-0.67998-0.39894-1.4372-0.47554-2.3919-0.0957-1.1925-6e-3 -1.9753 0.31685-2.8217 0.24763-0.64839 0.89308-0.83072 1.3898-1.2669 0.49677-0.43616 1.4029-0.67443 1.9253-0.77243l-0.24329-1.1902-0.42038-1.2721c-0.4101-0.43149-1.2214-0.89575-1.8249-1.2517-0.60356-0.35591-0.8186-1.0262-1.5601-1.114zm-32.522 7.5078c-0.0116 0.0018-0.021 0.0082-0.0284 0.01997l-0.2559 0.40881c-0.0589 0.0942-0.20398 0.98223-0.20598 2.1828-2e-3 1.2005-0.18308 2.9444-0.40251 3.8753-0.21942 0.93088-0.84164 2.5384-1.3825 3.5721-0.63483 1.2132-1.6881 2.5915-2.971 3.8884-1.093 1.1049-2.8268 2.5043-3.8538 3.1092-1.027 0.60486-2.8466 1.4567-4.0429 1.8932-1.1963 0.4366-3.1993 0.9724-4.4512 1.1907-1.2519 0.21831-3.1378 0.39673-4.1911 0.39673-1.0533 0-2.9392-0.17842-4.1911-0.39673-1.2519-0.2183-3.2325-0.74594-4.4008-1.1723l-2.1239-0.77506v1.0536c0 0.57956 0.18949 1.911 0.4209 2.9584 0.23141 1.0474 0.87781 2.8615 1.4361 4.0314 0.67788 1.4205 1.5231 2.6508 2.5459 3.704 0.8423 0.86739 1.5076 1.6622 1.4781 1.7661s-0.13285 1.7063 0.0825 1.6237c0.22149-0.085 0.96018 0.55738 1.052 0.7966 0.0892 0.23252 0.1414 0.11365 0.27166 0.0331 0.13028-0.0805 0.21071-0.53737 0.21071-0.37466 0 0.16269 0.13192-0.0462 0.27744-0.1361s0.35416 0.8131 0.35416 0.97579 0.31539 0.32961 0.45085 0.24592c0.13547-0.0837 0.66951-0.0976 0.74931 0.0315 0.0798 0.1291 0.53397 0.0836 1.0099 0.19547 0.47597 0.11189 0.28399-0.76183 0.35679-0.74353s0.67786 1.3145 0.86124 1.4277c0.6822 0.42087 0.5728-0.88402 0.68888-0.95582 0.11608-0.0718 0.63759 0.0251 0.83076 0.14451 0.19318 0.11942 1.2877-0.0134 1.5969-0.0294l-0.23593-1.0094c-0.10429-0.44514-0.91177-0.33394-2.6326-2.0588-1.5008-1.5043-2.1831-2.4867-2.8885-3.8727-0.54771-1.0761-0.99588-1.5048-0.94058-1.5601s0.34773 0.15783 1.0583 0.46241 1.9715 0.63186 2.8459 0.83811 2.7964 0.67533 4.1501 0.67733 3.3897-0.30289 4.4192-0.53703c1.0294-0.23414 2.6229-0.47238 3.6346-0.88961 1.0118-0.41722 2.8484-1.7622 3.8469-2.4261 0.99854-0.66383 2.6436-2.2498 3.5779-3.2589 0.93425-1.0091 2.8061-2.8062 3.3314-3.8059 0.52535-0.99973 1.2773-2.6058 1.4997-3.4597s-0.64121-5.5602-0.2601-3.9504c0.28764 1.215-0.27268-2.8771-0.49657-3.7445s-0.82794-2.6526-1.2953-3.5926c-0.46732-0.93999-1.2604-2.063-1.404-2.3236-0.12569-0.22799-0.30212-0.44271-0.38358-0.42983zm34.247 25.85c-2.6153 0-4.4534 1.102-6.1001 1.9127-1.1811 0.58145-2.4893 1.6368-3.4754 2.7019-0.80648 0.87109-1.7449 2.6889-2.1733 3.5978-0.42844 0.90896-0.76558 2.5724-0.9264 3.3435-0.16081 0.77114-0.29268 2.2752-0.29268 3.1213s3e-3 3.2455 0.13872 3.9615c0.13579 0.71598 1.0708 1.7714 1.3715 2.5669 0.30061 0.79548 0.91607 2.4181 1.5443 3.2526 0.62829 0.83453 1.729 3.248 2.4019 3.7723 0.67293 0.52426 2.7472 0.69543 3.5926 1.043 0.84539 0.34762 3.2214 0.56293 3.5574 0.56593s-0.0881-2.668-0.16394-2.7907c-0.0758-0.12271-0.3261-0.99462-0.82971-1.743-0.5036-0.74835-0.78607-2.1112-1.1119-2.95-0.47063-1.2116-1.6646-1.6487-1.6831-3.8559-0.0163-1.938 0.82983-2.8641 1.1471-3.8879 0.25013-0.80717 1.0659-2.1702 1.6416-3.0608 0.57565-0.89065 1.3442-1.9565 2.0824-2.5401 0.73826-0.58356 1.7078-1.0764 2.5448-1.392 1.2512-0.4718 1.7516-0.5679 3.6394-0.4808l2.2453-0.6479-0.14135-0.89381c-0.0771-0.48776-1.1252-1.0989-1.6652-1.5475-0.53998-0.44861-1.5904-1.5773-2.5333-2.0441-1.602-0.79305-2.204-2.0052-4.8106-2.0052z"
                />
                <path id="dark-green"
                    d="m82.287 253.05c-2.9104 0.0514-5.7679 0.0434-6.35-0.0178-0.58209-0.0612-2.368-0.29337-3.9688-0.51596s-4.2851-0.75035-5.9652-1.1728c-1.6801-0.42245-4.0614-1.135-5.2917-1.5835-1.2303-0.4485-3.6656-1.5186-5.4119-2.378-1.7462-0.85942-4.2745-2.2961-5.6184-3.1927-1.3439-0.89658-3.7298-2.7357-5.302-4.0869-2.0059-1.7239-3.5947-2.8264-5.3262-3.696-1.3572-0.68162-4.0356-2.1729-5.952-3.3139-1.9164-1.141-4.8494-3.0504-6.5179-4.2431-1.6684-1.1927-3.6884-2.7185-4.4887-3.3907-0.80037-0.67219-2.3076-1.9797-3.3494-2.9057-1.0418-0.92593-2.7087-2.6359-3.7042-3.7998-0.99551-1.164-2.4507-3.0884-3.2338-4.2765-0.78306-1.1881-1.8671-3.1127-2.4089-4.2768s-1.2974-3.0692-1.6791-4.2333c-0.38165-1.1642-0.88901-3.2478-1.1275-4.6302-0.31552-1.8292-0.3941-3.378-0.28861-5.6885 0.0899-1.9679 0.35763-3.9671 0.70433-5.2583 0.30765-1.1458 0.89749-2.829 1.3108-3.7405 0.41326-0.91144 1.2628-2.4147 1.8879-3.3407 0.62507-0.92592 1.9186-2.4656 2.8744-3.4214 0.95586-0.95585 2.4523-2.2196 3.3254-2.8084 0.87312-0.58874 2.4468-1.5029 3.497-2.0314 1.0503-0.5285 2.8191-1.2662 3.9307-1.6394 1.1116-0.37316 2.0562-0.64152 2.099-0.59635 0.0428 0.0452-0.70906 0.73734-1.6708 1.5382-0.96178 0.80081-2.3077 2.1499-2.991 2.998-0.68324 0.8481-1.6019 2.217-2.0414 3.0419-0.43951 0.82494-1.0964 2.3929-1.4597 3.4843-0.36334 1.0914-0.79357 3.1159-0.95607 4.4988-0.2084 1.7736-0.21592 3.2158-0.0255 4.8948 0.14847 1.3092 0.50592 3.2807 0.79432 4.3811s0.89851 2.8863 1.3558 3.9688c0.45729 1.0824 1.3675 2.8744 2.0226 3.9823 0.65518 1.1078 1.7947 2.8342 2.5322 3.8365 0.73753 1.0022 2.7188 3.1964 4.4029 4.8758 1.6841 1.6795 4.2573 3.9488 5.7183 5.0428s3.7492 2.6652 5.0848 3.4914 3.8907 2.2534 5.678 3.1716c1.7873 0.91821 4.4402 2.1677 5.8954 2.7767 1.4552 0.60899 3.9398 1.5847 5.5213 2.1682 1.5815 0.5835 4.2604 1.4729 5.9531 1.9765 1.6927 0.50359 4.5064 1.2757 6.2527 1.7157 1.7462 0.44006 4.3056 1.0317 5.6874 1.3147 1.3818 0.28304 2.5467 0.48035 2.5886 0.43846 0.0419-0.0419-1.1692-0.50635-2.6912-1.0321-1.5221-0.52578-4.1752-1.5596-5.8959-2.2973-1.7206-0.73776-4.3786-2.0018-5.9066-2.8089s-3.9688-2.2463-5.424-3.198-3.538-2.3988-4.6284-3.2156c-1.0904-0.81684-3.3384-2.7948-4.9955-4.3956-1.6572-1.6007-3.6914-3.7439-4.5205-4.7625-0.82912-1.0186-2.127-2.7751-2.8843-3.9032-0.75722-1.1281-1.9685-3.2611-2.6917-4.74-0.72322-1.4789-1.26-2.7439-1.1928-2.8111 0.0672-0.0672 0.69248 0.34717 1.3895 0.9208s2.2199 1.7021 3.384 2.5077c1.1642 0.80558 3.1705 2.0827 4.4586 2.838 1.2881 0.75535 3.4997 1.9544 4.9148 2.6645s3.8162 1.8222 5.3359 2.4713c1.5197 0.64909 4.5302 1.7906 6.6899 2.5366 2.1598 0.74606 5.6699 1.8349 7.8003 2.4196s6.1952 1.5329 9.0328 2.1071c2.8377 0.5742 7.243 1.3406 9.7896 1.7031 2.5466 0.36248 6.6543 0.84199 9.1281 1.0656 2.4738 0.22358 6.7601 0.52495 9.525 0.66969 2.7649 0.14475 7.9441 0.26361 11.509 0.26414s8.9826-0.12116 12.039-0.27042c3.0559-0.14927 7.4612-0.44614 9.7896-0.65972 2.3283-0.21359 5.0448-0.46641 6.0365-0.56184 1.1207-0.10783 1.6715-0.25702 1.4552-0.39416-0.19139-0.12137-0.94948-0.22249-1.6847-0.22472-0.73517-2e-3 -3.9499-0.24483-7.1438-0.53913s-8.1288-0.83223-10.966-1.1954c-2.8376-0.36318-7.0644-0.96644-9.3927-1.3406-2.3283-0.37413-6.5551-1.1524-9.3927-1.7294-2.8377-0.57706-6.8262-1.4669-8.8636-1.9774-2.0373-0.51052-5.1329-1.33-6.8792-1.8211-1.7462-0.49107-4.8419-1.4445-6.8792-2.1188s-5.6664-2.0044-8.0648-2.9557c-2.3983-0.95138-5.9107-2.5049-7.8052-3.4522-1.8946-0.94736-4.2483-2.1982-5.2306-2.7796-0.98227-0.58139-1.7859-1.0809-1.7859-1.1099 0-0.0291 2.5301 0.51657 5.6224 1.2125s8.718 1.8015 12.502 2.4567c3.7835 0.65524 8.6439 1.4442 10.801 1.7532s3.9782 0.50522 4.0474 0.43597c0.0693-0.0693 0.19678-3.206 0.28339-6.9705 0.11112-4.8294 0.0627-7.4018-0.16439-8.737-0.17703-1.0408-0.67281-2.6345-1.1017-3.5415s-1.3712-2.3922-2.0939-3.3004c-0.72274-0.90828-2.1192-2.307-3.1032-3.1082-0.984-0.80121-2.563-1.9572-3.5089-2.5688-0.94589-0.61161-2.97-1.7136-4.4979-2.4488-1.528-0.73526-4.5045-1.906-6.6146-2.6017-2.1101-0.69569-5.4438-1.5935-7.4083-1.9952-3.203-0.65485-4.1458-0.73223-9.1281-0.74913-5.0201-0.017-5.7556 0.0389-7.6225 0.57997-1.1364 0.32934-2.6585 0.89895-3.3825 1.2658s-1.7637 1.1144-2.3106 1.6613c-0.54688 0.54687-1.2473 1.5325-1.5565 2.1903s-1.1277 2.7661-1.8189 4.6852c-0.69119 1.9191-1.3476 3.4892-1.4586 3.4892-0.11103 0-0.98805-0.98226-1.9489-2.1828-0.96089-1.2006-2.2628-2.9567-2.8931-3.9026-0.63031-0.94589-1.3009-2.196-1.4902-2.7781-0.18932-0.58208-0.33367-1.7892-0.32077-2.6824 0.0159-1.102 0.2549-2.2078 0.74342-3.4396 0.39599-0.99852 1.5834-3.5419 2.6387-5.652s2.3478-4.592 2.8721-5.5155c0.52438-0.92348 0.9534-1.7169 0.9534-1.7632 0-0.0463-1.518-0.88704-3.3734-1.8684s-4.6831-2.5579-6.2839-3.5035-4.2796-2.6463-5.9531-3.7794c-1.6735-1.1331-4.054-2.8708-5.2901-3.8615s-3.2699-2.8133-4.5196-4.0502c-1.2497-1.2369-3.0112-3.2477-3.9143-4.4684-0.90317-1.2207-2.1075-3.1852-2.6763-4.3656s-1.3241-3.1582-1.6784-4.3952c-0.35434-1.2369-0.72812-2.7541-0.83064-3.3715l-0.18638-1.1225 1.8088 1.8812c0.99488 1.0347 3.05 2.8783 4.5671 4.097 1.517 1.2186 2.7982 2.1757 2.8471 2.1268 0.0489-0.0489-0.0946-0.60907-0.31893-1.2448-0.22431-0.63576-0.47959-2.0048-0.56729-3.0422-0.0877-1.0375-0.0655-2.7088 0.0494-3.714l0.20883-1.8277 0.35794 2.2212c0.21823 1.3542 0.68285 2.8812 1.1903 3.912 0.5407 1.0983 1.3712 2.1896 2.3698 3.1142 0.97387 0.90164 2.0984 1.6377 3.0679 2.0082 0.84178 0.32166 2.3813 0.64427 3.4211 0.71691 1.0792 0.0754 2.4986-9e-3 3.3073-0.19785 0.77919-0.18145 2.2113-0.74208 3.1825-1.2458 1.0016-0.5195 2.452-1.6021 3.3512-2.5014 0.88846-0.88846 1.999-2.3725 2.5262-3.3756 0.5174-0.9846 1.1227-2.4888 1.3451-3.3427 0.22241-0.8539 0.40297-2.3907 0.40124-3.4152-2e-3 -1.0244-0.16216-2.458-0.35652-3.1856s-0.62596-1.8587-0.95911-2.5135-0.93577-1.6669-1.3392-2.249-1.1586-1.5171-1.6782-2.0778c-0.93981-1.0142-0.94101-1.0186-0.23108-0.8404 0.39249 0.0985 1.3524 0.48132 2.1332 0.85068s2.1602 1.3644 3.0654 2.2111c0.90518 0.84675 1.9715 2.138 2.3696 2.8695 0.39812 0.73147 0.96328 2.0196 1.2559 2.8626s0.60153 2.4897 0.68643 3.6593c0.10846 1.4942 0.0208 2.7856-0.29454 4.3421-0.24689 1.2185-0.78773 2.9627-1.2019 3.876-0.41413 0.91334-1.1424 2.2336-1.6184 2.934-0.47598 0.70032-1.6792 2.0714-2.6739 3.0468-1.2016 1.1783-2.4509 2.0885-3.7228 2.7123-1.0528 0.51637-2.7194 1.1348-3.7036 1.3742-1.7257 0.41992-1.7687 0.44988-1.2087 0.84212 0.31937 0.2237 2.97 1.5304 5.8904 2.9038s7.81 3.5377 10.866 4.8095c3.0559 1.2718 7.6994 3.1193 10.319 4.1055 2.6194 0.98619 8.0962 2.9795 12.171 4.4296 4.0746 1.4501 9.9682 3.526 13.097 4.6132 3.1287 1.0872 8.3079 2.7322 11.509 3.6557s7.7936 2.1622 10.205 2.7526c2.4112 0.5905 6.757 1.5466 9.6573 2.1248 2.9003 0.57813 7.2378 1.3517 9.6389 1.719 2.4011 0.36732 5.9134 0.84307 7.8052 1.0572 1.8918 0.21415 5.1065 0.53387 7.1438 0.7105s7.157 0.32489 11.377 0.32948c4.2201 5e-3 9.2803-0.13828 11.245-0.31747s3.9291-0.40022 4.3656-0.49117c0.54694-0.11395-0.81052-0.39696-4.3656-0.91015-2.8377-0.40963-7.7192-1.1696-10.848-1.6887-3.1287-0.51919-9.4985-1.7074-14.155-2.6406-4.6567-0.93314-11.562-2.4872-15.346-3.4535-3.7835-0.96626-7.1568-1.8203-7.4962-1.8978-0.4871-0.11127-0.58-0.25893-0.4412-0.70127 0.0967-0.30817 0.35764-1.2747 0.57986-2.1478 0.33338-1.3099 0.35172-1.9331 0.10492-3.564-0.19529-1.2905-0.66231-2.7269-1.3456-4.1385-0.75388-1.5575-1.6127-2.7639-3.0717-4.3148-1.1139-1.184-2.9227-2.742-4.0196-3.4621-1.0969-0.72011-2.8706-1.6741-3.9415-2.1199-1.0709-0.44582-2.9856-1.108-4.255-1.4715-1.2693-0.36349-3.3794-1.189-4.6891-1.8346-1.3097-0.64551-3.3634-1.9508-4.5637-2.9007-1.2208-0.96606-2.942-2.6876-3.9063-3.907-0.94811-1.199-2.1862-3.0741-2.7514-4.1668-0.56515-1.0927-1.3374-2.9752-1.7161-4.1833-0.37872-1.208-0.68858-2.3917-0.68858-2.6303 0-0.23859 0.40605 0.24051 0.90233 1.0647 0.49629 0.82417 1.3595 2.0582 1.9182 2.7424s1.7792 1.8748 2.7122 2.6458c0.93295 0.77107 2.5998 1.8707 3.7042 2.4436s2.6829 1.2367 3.5079 1.4751c0.82501 0.23842 2.1193 0.53138 2.8762 0.65103l1.3762 0.21754-0.89179-0.67011c-0.49049-0.36856-1.5657-1.3728-2.3894-2.2316s-1.925-2.3749-2.4474-3.369c-0.5224-0.99412-0.94981-1.9413-0.94981-2.1049 0-0.18222 0.39044-0.0982 1.008 0.21685 0.55444 0.28285 1.7153 0.69089 2.5797 0.90674 0.8644 0.21586 2.2353 0.46906 3.0464 0.56266s2.4904 0.044 3.7318-0.11026c1.2413-0.15425 3.078-0.55993 4.0814-0.9015 1.0035-0.34158 2.5531-0.98912 3.4437-1.439 0.89056-0.44987 2.3788-1.4229 3.3073-2.1623 0.92845-0.73941 2.2591-2.0254 2.957-2.8578s1.6817-2.3469 2.1862-3.3656c0.50453-1.0186 1.0923-2.6855 1.3062-3.7042 0.21387-1.0186 0.38885-2.3879 0.38885-3.0427s-0.1675-1.9809-0.37223-2.9468c-0.20474-0.9659-0.75796-2.6827-1.2294-3.8152-0.67109-1.612-1.2641-2.4875-2.732-4.0332-1.0312-1.0858-2.5729-2.4484-3.4261-3.028-0.85315-0.57956-2.3185-1.4016-3.2563-1.8269-0.93782-0.42523-2.621-1.0056-3.7405-1.2896l-2.0353-0.51647 3.8365 0.0907c3.3169 0.0784 4.3023 0.21137 7.276 0.98189 3.1988 0.82884 3.7359 0.89173 7.6729 0.89834 3.7784 6e-3 4.4287-0.0603 6.0516-0.62053 1.2434-0.42922 2.1426-0.952 2.8443-1.6536 0.6585-0.65851 1.0365-1.2866 1.0553-1.7536 0.0161-0.40018 4e-3 -1.0244-0.0273-1.387-0.0311-0.36269-0.2935-1.1237-0.583-1.6912-0.28951-0.56748-1.0809-1.6285-1.7586-2.3578-0.67772-0.72934-2.0657-1.9421-3.0843-2.6951-1.0186-0.75298-2.6037-1.8069-3.5224-2.342-0.91866-0.5351-3.5976-1.8499-5.9531-2.9217-2.3556-1.0718-6.4978-2.7313-9.2049-3.6878-2.7071-0.95641-5.9813-2.0366-7.276-2.4004-1.2947-0.36381-3.4256-0.89962-4.7353-1.1907-1.3097-0.29108-4.0574-0.77377-6.1061-1.0726s-5.861-0.65416-8.4718-0.7895c-2.9278-0.15178-6.4985-0.15172-9.3177 1.7e-4 -2.5139 0.13543-6.2025 0.4766-8.1969 0.75814s-5.055 0.81967-6.8012 1.1958c-1.7462 0.37617-4.7228 1.1488-6.6146 1.717-1.8918 0.5682-3.6777 1.112-3.9688 1.2086-0.29104 0.0965 0.0661-0.21303 0.79375-0.68789 0.7276-0.47486 2.7517-1.6096 4.4979-2.5217 1.7462-0.91206 4.5442-2.2432 6.2177-2.9581 1.6735-0.7149 4.4714-1.8014 6.2177-2.4145s4.7228-1.5196 6.6146-2.0145 4.8088-1.1364 6.4823-1.4256 4.2333-0.67107 5.6885-0.84859 5.3247-0.32571 8.599-0.32931c3.2742-4e-3 7.2628 0.14035 8.8635 0.3199s4.6322 0.62343 6.7366 0.9864c2.1044 0.36298 6.3907 1.3034 9.525 2.0898 3.1343 0.78642 7.0915 1.9123 8.7938 2.5019 1.7022 0.58964 4.5598 1.6576 6.35 2.3731 1.7903 0.71558 4.8624 2.0326 6.8269 2.9267 1.9645 0.89408 4.9411 2.3493 6.6146 3.2338 1.6735 0.8845 4.2929 2.3229 5.8208 3.1965 1.528 0.87359 4.8022 2.9278 7.276 4.565 2.4739 1.6372 5.8848 4.0329 7.5799 5.3238s4.5589 3.6136 6.364 5.1614c1.8051 1.5478 4.89 4.4176 6.8553 6.3772 1.9653 1.9596 4.7417 4.92 6.1697 6.5785s3.754 4.5633 5.1688 6.4551c1.4148 1.8918 3.0927 4.2135 3.7286 5.1594 0.63591 0.94588 2.0799 3.261 3.2089 5.1447 1.129 1.8837 2.0099 3.4677 1.9576 3.52-0.0523 0.0523-1.6861-0.81109-3.6306-1.9186-1.9446-1.1075-5.8291-3.1563-8.6323-4.5528s-5.1574-2.4785-5.2314-2.4044c-0.0741 0.0741 0.29026 1.2482 0.80962 2.6092 0.51937 1.361 1.3604 3.9065 1.8691 5.6567 0.50862 1.7502 1.2118 4.6127 1.5626 6.3611s0.85086 4.6076 1.1113 6.3539c0.37981 2.547 0.47264 4.8497 0.46927 11.642-3e-3 6.7572-0.0998 9.1077-0.47749 11.642-0.26031 1.7462-0.77374 4.6018-1.141 6.3456s-1.1271 4.5698-1.6887 6.2799-1.5752 4.1823-2.2525 5.4937c-0.86079 1.6666-1.6355 2.7476-2.5737 3.5911-0.73819 0.66369-2.1403 1.6809-3.1159 2.2605-0.97555 0.57956-2.7707 1.4748-3.9893 1.9895-1.2186 0.51467-3.5367 1.277-5.1514 1.694s-4.2936 0.97284-5.9531 1.2352c-2.4059 0.38029-4.5989 0.47718-10.822 0.47812-4.6732 8e-4 -9.0792-0.13845-10.98-0.34679-1.7462-0.19138-5.1684-0.64172-7.6048-1.0008s-6.2175-1.0061-8.4025-1.438c-2.185-0.43185-4.0879-0.78519-4.2287-0.78519-0.16468 0-0.16519 0.23906-1e-3 0.6698 0.14006 0.36839 0.73433 2.4192 1.3206 4.5574s1.4106 5.617 1.8319 7.7307c0.4213 2.1137 0.94748 5.2719 1.1693 7.0181s0.48003 3.9788 0.57379 4.9612c0.14791 1.5499 0.24641 1.8023 0.74468 1.9079 0.31582 0.067 3.6698 0.30483 7.4534 0.52861 3.7836 0.22378 9.9748 0.54489 13.758 0.7136s14.261 0.3097 23.283 0.31331c9.0223 4e-3 19.738-0.13486 23.812-0.30773 4.0746-0.17286 8.1227-0.38309 8.9958-0.46718l1.5875-0.1529-1.8521 1.383c-1.0186 0.76066-3.3404 2.3574-5.1594 3.5483-1.819 1.1909-4.3877 2.778-5.7082 3.527-1.3205 0.74893-4.4757 2.3639-7.0115 3.5889-2.5358 1.225-5.9797 2.7631-7.6532 3.4182-1.6735 0.65507-4.5124 1.6796-6.3088 2.2767-1.7963 0.59712-5.011 1.5572-7.1438 2.1336-2.1327 0.57636-5.6041 1.4014-7.7142 1.8334-2.11 0.43201-5.4438 1.028-7.4083 1.3245s-5.2983 0.73144-7.4083 0.96664c-2.2736 0.25342-7.2946 0.48691-12.325 0.57316l-8.4889 0.14555-2.8991 4.3756 2.6624 0.80759c1.4643 0.44418 3.6149 1.0423 4.779 1.3291 1.1642 0.28683 3.3579 0.77464 4.875 1.084 1.5171 0.30936 4.2408 0.79004 6.0527 1.0682 1.8119 0.27814 3.3374 0.54877 3.3901 0.60141 0.0526 0.0526-2.0162 0.59832-4.5975 1.2126-2.5812 0.61432-6.241 1.3992-8.1327 1.7442-1.8918 0.34501-4.9279 0.81446-6.7469 1.0432-1.819 0.22876-4.617 0.52999-6.2177 0.66941s-4.7559 0.33281-7.0115 0.42976c-2.5349 0.10896-4.9441 0.37328-6.3087 0.69217-1.2142 0.28374-3.774 0.75284-5.6885 1.0424-2.2977 0.34757-5.2796 0.55834-8.7726 0.62007zm65.307-102.26c0.38972 0.0114 0.29806-0.20259-0.47198-1.1022-0.52559-0.61404-1.2524-1.7231-1.6152-2.4645-0.36275-0.74144-0.8505-2.2844-1.0839-3.4289-0.35257-1.7289-0.37406-2.4419-0.12705-4.2162 0.20109-1.4444 0.59294-2.7374 1.2109-3.9956 0.5025-1.0231 1.4856-2.4416 2.1846-3.1521 0.72895-0.74094 2.0044-1.6402 2.9908-2.1085 1.5526-0.73728 1.968-0.81665 4.2734-0.81665 2.28 0 2.5289-0.0463 2.3225-0.4319-0.12716-0.23754-0.83669-0.97629-1.5768-1.6417-0.74006-0.66537-1.9679-1.5142-2.7285-1.8864-0.76064-0.37214-2.123-0.80697-3.0274-0.96629-1.1629-0.20484-2.1039-0.20873-3.2135-0.0133-0.86299 0.15201-2.2437 0.59554-3.0683 0.98561-0.82454 0.39008-2.1417 1.3518-2.927 2.1371-0.7853 0.78531-1.8036 2.1702-2.2629 3.0776-0.45927 0.90735-0.99447 2.245-1.1893 2.9726-0.19485 0.72761-0.35568 2.3397-0.35741 3.5824-2e-3 1.2427 0.17917 2.9594 0.40198 3.8149 0.22283 0.85547 0.77801 2.255 1.2338 3.11 0.45573 0.85505 1.2836 2.0715 1.8397 2.7033 0.5561 0.63177 1.6097 1.5328 2.3413 2.0022 0.73161 0.46947 2.0134 1.072 2.8484 1.3389 0.83501 0.26694 1.7358 0.49174 2.0018 0.49956zm-0.66406-46.566 1.1425 0.0132-0.56917-0.79932c-0.31304-0.43963-0.79739-1.4487-1.0764-2.2424-0.27895-0.79366-0.50718-1.9045-0.50718-2.4685s0.13551-1.4302 0.30112-1.9248c0.16562-0.49466 0.58194-1.2779 0.92515-1.7404 0.38598-0.52023 1.1358-1.032 1.9657-1.3416l1.3416-0.50048-0.99898-0.97032c-0.54944-0.53367-1.5087-1.2099-2.1316-1.5027-0.65747-0.30905-1.6816-0.53241-2.4412-0.53241-0.71972 0-1.6438 0.127-2.0534 0.28221s-1.0284 0.54217-1.375 0.85989c-0.34662 0.31773-0.85002 1.0539-1.1187 1.636-0.3249 0.70395-0.49033 1.6785-0.49406 2.9104-5e-3 1.4958 0.13943 2.1575 0.74827 3.4396 0.41463 0.87312 1.2495 2.081 1.8552 2.6842 0.60574 0.60317 1.6059 1.3414 2.2225 1.6405 0.61663 0.29907 1.6353 0.54971 2.2636 0.55696zm-91.474-2.6614c-0.95899-0.0158-2.4598-0.22979-3.3352-0.47555-0.87539-0.24576-2.1698-0.72673-2.8765-1.0688-0.70667-0.34209-2.0257-1.315-2.9312-2.162-0.93459-0.87426-2.0044-2.2119-2.4747-3.0943-0.45562-0.85484-1.0082-2.3171-1.228-3.2494-0.21977-0.93234-0.38725-2.5286-0.37218-3.5472 0.015-1.0186 0.1068-2.2093 0.20387-2.6458 0.15349-0.69037 0.21519-0.5654 0.47374 0.95958 0.1635 0.96434 0.61882 2.41 1.0118 3.2127s1.3266 2.0599 2.0746 2.7939 1.9604 1.6336 2.6942 1.9992c0.73375 0.36554 1.8648 0.78693 2.5135 0.93641 0.64869 0.14949 1.7748 0.27295 2.5024 0.27436 0.7276 1e-3 2.0857-0.17725 3.0181-0.39702s2.378-0.76355 3.2126-1.2084 2.1723-1.3924 2.9726-2.1057c0.80031-0.71331 1.9028-1.9713 2.4499-2.7956 0.54713-0.82428 1.2792-2.3165 1.6268-3.3161 0.47885-1.377 0.63225-2.3774 0.63293-4.128 5.3e-4 -1.6204-0.15592-2.7638-0.52408-3.8275-0.28874-0.83429-0.91227-2.0798-1.3856-2.7678-0.47335-0.688-1.284-1.7195-1.8013-2.2921-0.88205-0.97633-0.89948-1.0287-0.27962-0.84022 0.36358 0.11055 1.341 0.55877 2.172 0.99606 0.83103 0.43728 2.1566 1.472 2.9458 2.2994 0.78918 0.82737 1.743 2.1124 2.1196 2.8556 0.37663 0.74324 0.92625 2.2227 1.2214 3.2877 0.29513 1.065 0.53453 2.5341 0.532 3.2646-3e-3 0.73053-0.17897 2.1617-0.39211 3.1803-0.21313 1.0186-0.8838 2.8641-1.4904 4.101-0.88526 1.8052-1.5518 2.6953-3.3782 4.511-1.5894 1.5801-2.8496 2.5594-4.1802 3.2486-1.0477 0.54259-2.8229 1.2213-3.9449 1.5083-1.1308 0.2892-2.8172 0.50896-3.7837 0.49305z"
                />
            </g>
        </g>
    </svg>